<svg width="79" height="18" viewBox="0 0 79 18" fill="none" xmlns="http://www.w3.org/2000/svg">
<rect x="0.25" y="6.25" width="14.5" height="0.5" fill="white" stroke="white" stroke-width="0.5"/>
<rect x="0.25" y="12.25" width="14.5" height="0.5" fill="white" stroke="white" stroke-width="0.5"/>
<path d="M33.56 16H33.3L35.04 2H35.7L39.9 14.94L44.08 2H44.74L46.48 16H44.82L43.44 4.8L39.82 16H38.56L34.9 4.94L33.56 16ZM49.8436 11.12C49.8436 12.7733 50.1303 13.9867 50.7036 14.76C51.2903 15.5333 52.0569 15.92 53.0036 15.92C54.3369 15.92 55.5236 15.72 56.5636 15.32L56.6236 15.46C55.5569 15.8733 54.3503 16.08 53.0036 16.08C51.6703 16.08 50.5836 15.68 49.7436 14.88C48.9036 14.08 48.4836 12.8467 48.4836 11.18C48.4836 9.51333 48.9236 8.22 49.8036 7.3C50.6836 6.38 51.8036 5.92 53.1636 5.92C54.2569 5.92 55.1769 6.24667 55.9236 6.9C56.6703 7.55333 57.0436 8.52 57.0436 9.8C57.0436 9.86667 57.0436 9.93333 57.0436 10H49.9036C49.8636 10.36 49.8436 10.7333 49.8436 11.12ZM55.6836 9.84C55.6703 8.56 55.4236 7.61333 54.9436 7C54.4636 6.38667 53.8436 6.08 53.0836 6.08C52.3236 6.08 51.6436 6.41333 51.0436 7.08C50.4569 7.74667 50.0836 8.66667 49.9236 9.84H55.6836ZM66.1586 16C65.6119 16 65.1919 15.88 64.8986 15.64C64.6186 15.4 64.4719 15.16 64.4586 14.92L64.4386 14.58V8.3C64.4386 7.24667 64.1653 6.57333 63.6186 6.28C63.3386 6.14667 62.9919 6.08 62.5786 6.08C61.7253 6.08 60.9586 6.42 60.2786 7.1C59.5986 7.76667 59.2586 8.36667 59.2586 8.9V16H57.8586V6H59.2586V8.28C59.4853 7.70667 59.9053 7.17333 60.5186 6.68C61.1319 6.17333 61.8053 5.92 62.5386 5.92C63.2719 5.92 63.8653 5.99333 64.3186 6.14C64.7853 6.27333 65.1253 6.46667 65.3386 6.72C65.6719 7.13333 65.8386 7.66667 65.8386 8.32V14.58C65.8386 14.9667 65.9119 15.2667 66.0586 15.48C66.2186 15.68 66.3786 15.7867 66.5386 15.8L66.7586 15.84H67.3786V16H66.1586ZM69.7859 13.7C69.7859 14.7533 70.0659 15.4267 70.6259 15.72C70.8926 15.8533 71.2326 15.92 71.6459 15.92C72.4859 15.92 73.2326 15.6 73.8859 14.96C74.5526 14.32 74.9126 13.7267 74.9659 13.18V6H76.3659V14.58C76.3659 14.9667 76.4393 15.2667 76.5859 15.48C76.7459 15.68 76.9059 15.7867 77.0659 15.8L77.2859 15.84H77.9059V16H76.6859C76.1393 16 75.7193 15.88 75.4259 15.64C75.1459 15.4 74.9993 15.16 74.9859 14.92L74.9659 14.58V13.72C74.7259 14.2933 74.2993 14.8333 73.6859 15.34C73.0726 15.8333 72.3993 16.08 71.6659 16.08C70.9459 16.08 70.3526 16.0133 69.8859 15.88C69.4326 15.7333 69.1059 15.5333 68.9059 15.28C68.5593 14.8667 68.3859 14.3333 68.3859 13.68V6H69.7859V13.7Z" fill="white"/>
</svg>
